<svg width="25" height="24" viewBox="0 0 25 24" fill="none" xmlns="http://www.w3.org/2000/svg">
<mask id="mask0_331_140" style="mask-type:luminance" maskUnits="userSpaceOnUse" x="3" y="2" width="19" height="20">
<path d="M3.69052 20.6867C3.63776 20.9467 3.87518 21.1733 4.1324 21.12C7.10684 20.4867 9.2305 20.0267 9.42836 19.98C9.52729 19.96 9.6526 19.9133 9.7845 19.82C9.82407 19.7867 9.86364 19.7533 9.90321 19.72C13.735 15.7733 17.5669 11.82 21.3987 7.87334C21.7614 7.5 21.7548 6.9 21.3855 6.53334L17.7977 2.97334C17.4284 2.60667 16.8348 2.61334 16.4721 2.98667L4.96999 14.8267C4.83809 14.96 4.75235 15.1267 4.71937 15.3133C4.37642 17.1067 4.03347 18.9 3.69052 20.6867Z" fill="white"/>
</mask>
<g mask="url(#mask0_331_140)">
<path d="M6.11093 21.3067C6.05817 21.5667 6.29559 21.7933 6.55281 21.74C9.52725 21.1067 11.6509 20.6467 11.8488 20.6C11.9477 20.58 12.073 20.5333 12.2049 20.44C12.2445 20.4067 12.2841 20.3733 12.3236 20.34C16.1554 16.3933 19.9873 12.44 23.8191 8.49333C24.1818 8.12 24.1752 7.52 23.8059 7.15333L20.2181 3.59333C19.8488 3.22667 19.2552 3.23333 18.8925 3.60667L7.3904 15.4467C7.2585 15.58 7.17276 15.7467 7.13978 15.9333C6.79683 17.7267 6.45388 19.52 6.11093 21.3067Z" fill="#68DBA4"/>
</g>
<path d="M3.69052 21.0333C3.63776 21.2933 3.87518 21.52 4.1324 21.4667C7.10684 20.8334 9.2305 20.3733 9.42836 20.3267C9.52729 20.3067 9.6526 20.26 9.7845 20.1667C9.82407 20.1333 9.86364 20.1 9.90321 20.0667C13.735 16.12 17.5669 12.1667 21.3987 8.22002C21.7614 7.84668 21.7548 7.24668 21.3855 6.88002L17.7977 3.32002C17.4284 2.95335 16.8348 2.96002 16.4721 3.33335L4.96999 15.18C4.83809 15.3134 4.75235 15.48 4.71937 15.6667C4.37642 17.46 4.03347 19.2533 3.69052 21.04V21.0333Z" stroke="#20827B" stroke-miterlimit="10"/>
<path d="M14.2034 5.66003C15.8522 7.2867 17.4944 8.91337 19.1432 10.54" stroke="#20827B" stroke-miterlimit="10"/>
</svg>
