<svg width="37" height="36" viewBox="0 0 37 36" fill="none" xmlns="http://www.w3.org/2000/svg">
<g clip-path="url(#clip0_331_61)">
<mask id="mask0_331_61" style="mask-type:luminance" maskUnits="userSpaceOnUse" x="5" y="2" width="27" height="32">
<path d="M31.1195 26.35C29.6795 22.38 29.4295 19.2 29.5095 16.91C29.5695 15.26 29.8095 13.88 29.3295 11.78C29.0795 10.68 28.3795 7.71 25.7995 5.35C22.7395 2.55 19.1395 2.54 18.1995 2.57C17.2695 2.54 13.6695 2.55 10.5995 5.35C8.01949 7.71 7.31949 10.69 7.06949 11.78C6.59949 13.88 6.83949 15.26 6.88949 16.91C6.96949 19.2 6.71949 22.38 5.27949 26.35C4.98949 27.16 5.53949 28.03 6.35949 28.03H13.0395C13.0395 31.02 15.3395 33.44 18.1795 33.44C21.0195 33.44 23.3195 31.02 23.3195 28.03H29.9995C30.8195 28.03 31.3795 27.16 31.0795 26.35H31.1195Z" fill="white"/>
</mask>
<g mask="url(#mask0_331_61)">
<path d="M31.8394 26.12C30.5294 22.51 30.3094 19.63 30.3794 17.55C30.4294 16.06 30.6494 14.8 30.2194 12.89C29.9994 11.89 29.3494 9.19003 27.0094 7.05003C24.2294 4.51003 20.9594 4.50003 20.1094 4.52003C19.2594 4.49003 15.9894 4.50003 13.2094 7.05003C10.8694 9.19003 10.2294 11.9 9.9994 12.89C9.5694 14.8 9.7894 16.05 9.8394 17.55C9.9094 19.63 9.6794 22.51 8.3794 26.12C8.1094 26.86 8.6194 27.65 9.3594 27.65H15.4294C15.4294 30.37 17.5194 32.57 20.0994 32.57C22.6794 32.57 24.7694 30.37 24.7694 27.65H30.8394C31.5894 27.65 32.0894 26.86 31.8194 26.12H31.8394Z" fill="#68DBA4"/>
</g>
<path d="M30.0695 16.9C30.1295 15.25 30.3695 13.87 29.8895 11.77C29.6395 10.67 28.9395 7.69999 26.3595 5.33999C23.2995 2.53999 19.6995 2.52999 18.7595 2.55999C17.8295 2.52999 14.2295 2.53999 11.1595 5.33999C8.57954 7.69999 7.87954 10.68 7.62954 11.77C7.15954 13.87 7.39954 15.25 7.44954 16.9C7.52954 19.19 7.27954 22.37 5.83954 26.34C5.54954 27.15 6.09954 28.02 6.91954 28.02H30.5695C31.3895 28.02 31.9495 27.15 31.6495 26.34C30.2095 22.37 29.9595 19.19 30.0395 16.9H30.0695Z" stroke="#20827B" stroke-width="2" stroke-miterlimit="10"/>
<path d="M23.9094 28.03C23.9094 31.02 21.6094 33.44 18.7694 33.44C15.9294 33.44 13.6294 31.02 13.6294 28.03" stroke="#20827B" stroke-width="2" stroke-miterlimit="10"/>
</g>
<defs>
<clipPath id="clip0_331_61">
<rect width="36" height="36" fill="white" transform="translate(0.489502)"/>
</clipPath>
</defs>
</svg>
