<svg width="41" height="40" viewBox="0 0 41 40" fill="none" xmlns="http://www.w3.org/2000/svg">
<path d="M20.6331 5C30.2998 5 38.1348 11.1067 38.1348 18.6417C38.1348 26.175 30.2998 32.2817 20.6348 32.2817C19.6724 32.2821 18.711 32.2209 17.7564 32.0983L10.4098 36.9033C9.57477 37.345 9.27977 37.2967 9.6231 36.215L11.1098 30.085C6.30977 27.6517 3.13477 23.435 3.13477 18.6417C3.13477 11.1083 10.9681 5 20.6348 5H20.6331ZM30.4798 18.4333L32.9298 16.06C33.0711 15.9132 33.15 15.7172 33.1498 15.5134C33.1495 15.3096 33.0702 15.1138 32.9284 14.9673C32.7867 14.8209 32.5937 14.7351 32.39 14.7282C32.1863 14.7212 31.9878 14.7935 31.8364 14.93L28.6231 18.04V15.47C28.6231 15.2614 28.5402 15.0613 28.3927 14.9137C28.2452 14.7662 28.0451 14.6833 27.8364 14.6833C27.6278 14.6833 27.4277 14.7662 27.2802 14.9137C27.1326 15.0613 27.0498 15.2614 27.0498 15.47V19.7317C27.0203 19.8532 27.0203 19.9801 27.0498 20.1017V22.5C27.0498 22.7086 27.1326 22.9087 27.2802 23.0563C27.4277 23.2038 27.6278 23.2867 27.8364 23.2867C28.0451 23.2867 28.2452 23.2038 28.3927 23.0563C28.5402 22.9087 28.6231 22.7086 28.6231 22.5V20.2283L29.3348 19.54L31.7148 22.9283C31.7742 23.0129 31.8497 23.085 31.937 23.1404C32.0242 23.1958 32.1216 23.2335 32.2234 23.2513C32.3252 23.2691 32.4296 23.2667 32.5305 23.2441C32.6314 23.2216 32.7268 23.1794 32.8114 23.12C32.896 23.0606 32.9681 22.9851 33.0235 22.8978C33.0789 22.8105 33.1166 22.7132 33.1344 22.6114C33.1522 22.5095 33.1498 22.4052 33.1272 22.3043C33.1047 22.2034 33.0625 22.1079 33.0031 22.0233L30.4798 18.4317V18.4333ZM25.5498 21.64H23.1164V15.495C23.1071 15.2928 23.0203 15.1021 22.8739 14.9623C22.7276 14.8225 22.533 14.7445 22.3306 14.7445C22.1282 14.7445 21.9336 14.8225 21.7873 14.9623C21.6409 15.1021 21.5541 15.2928 21.5448 15.495V22.4267C21.5448 22.86 21.8948 23.2133 22.3298 23.2133H25.5498C25.7584 23.2133 25.9585 23.1305 26.106 22.9829C26.2535 22.8354 26.3364 22.6353 26.3364 22.4267C26.3364 22.218 26.2535 22.0179 26.106 21.8704C25.9585 21.7229 25.7584 21.64 25.5498 21.64ZM15.7881 19.8217L16.9481 16.975L18.0114 19.82L15.7881 19.8217ZM19.9931 20.6333L19.9964 20.6067C19.996 20.4085 19.9204 20.2179 19.7848 20.0733L18.0414 15.4067C17.9684 15.1843 17.8291 14.9895 17.6424 14.8483C17.4557 14.7072 17.2303 14.6263 16.9964 14.6167C16.7608 14.6156 16.5305 14.6864 16.3361 14.8194C16.1417 14.9525 15.9924 15.1417 15.9081 15.3617L13.1381 22.1533C13.0592 22.3465 13.0603 22.5631 13.1411 22.7555C13.2219 22.9479 13.3758 23.1003 13.5689 23.1792C13.7621 23.2581 13.9787 23.257 14.1711 23.1762C14.3635 23.0954 14.5159 22.9415 14.5948 22.7483L15.1481 21.3933H18.5981L19.0948 22.7267C19.1286 22.8263 19.1822 22.9182 19.2522 22.9968C19.3222 23.0754 19.4073 23.1391 19.5024 23.1842C19.5975 23.2293 19.7007 23.2549 19.8059 23.2594C19.9111 23.2639 20.0161 23.2473 20.1147 23.2105C20.2133 23.1736 20.3035 23.1174 20.38 23.0451C20.4565 22.9728 20.5177 22.8858 20.56 22.7894C20.6023 22.693 20.6248 22.5891 20.6262 22.4839C20.6276 22.3786 20.6078 22.2742 20.5681 22.1767L19.9931 20.6333ZM14.4564 15.5033C14.4564 15.295 14.3738 15.0951 14.2266 14.9477C14.0794 14.8002 13.8798 14.7171 13.6714 14.7167H8.2631C8.05446 14.7167 7.85437 14.7995 7.70684 14.9471C7.55931 15.0946 7.47643 15.2947 7.47643 15.5033C7.47643 15.712 7.55931 15.9121 7.70684 16.0596C7.85437 16.2071 8.05446 16.29 8.2631 16.29H10.1964V22.5167C10.1964 22.7253 10.2793 22.9254 10.4268 23.0729C10.5744 23.2205 10.7745 23.3033 10.9831 23.3033C11.1917 23.3033 11.3918 23.2205 11.5394 23.0729C11.6869 22.9254 11.7698 22.7253 11.7698 22.5167V16.29H13.6698C13.8784 16.29 14.0785 16.2071 14.226 16.0596C14.3736 15.9121 14.4564 15.712 14.4564 15.5033Z" fill="#240B0B"/>
</svg>
