<svg width="36" height="37" viewBox="0 0 36 37" fill="none" xmlns="http://www.w3.org/2000/svg">
<g clip-path="url(#clip0_341_41)">
<path d="M16.6102 11.81C13.8902 8.28999 13.1002 4.71999 12.8302 2.98999C12.8302 2.98999 12.8302 2.98999 12.8302 2.99999C12.5602 4.71999 11.7702 8.28999 9.0502 11.81C6.7002 14.85 3.9902 16.46 2.4502 17.22C5.0002 18.76 6.60019 20.41 7.5702 21.59C11.2302 26.07 12.7902 32.29 12.8302 32.27C12.8302 32.27 12.8302 32.27 12.8302 32.26C12.8302 32.26 12.8302 32.26 12.8302 32.27C12.8702 32.29 14.4302 26.06 18.0902 21.59C19.0602 20.4 20.6502 18.76 23.2102 17.22C21.6702 16.45 18.9602 14.84 16.6102 11.81Z" fill="#FFD766"/>
<path d="M29.74 22.9699C28.17 20.9399 27.71 18.8699 27.55 17.8699C27.4 18.8699 26.94 20.9299 25.36 22.9599C24 24.7199 22.43 25.6499 21.54 26.0899C23.02 26.9799 23.94 27.9299 24.5 28.6199C26.62 31.2099 27.52 34.8099 27.54 34.7999C27.57 34.8099 28.47 31.2099 30.58 28.6199C31.14 27.9299 32.06 26.9799 33.54 26.0899C32.65 25.6499 31.08 24.7199 29.72 22.9599L29.74 22.9699Z" fill="#FFD766"/>
<path d="M27.0404 6.03994C25.8504 4.49994 25.5104 2.94994 25.3904 2.18994C25.2704 2.93994 24.9304 4.49994 23.7404 6.03994C22.7104 7.36994 21.5304 8.06994 20.8604 8.39994C21.9704 9.06994 22.6704 9.78994 23.0904 10.3099C24.6904 12.2599 25.3704 14.9799 25.3904 14.9699C25.4104 14.9699 26.0904 12.2599 27.6904 10.3099C28.1104 9.78994 28.8104 9.06994 29.9204 8.39994C29.2504 8.06994 28.0704 7.35994 27.0404 6.03994Z" fill="#FFD766"/>
</g>
<defs>
<clipPath id="clip0_341_41">
<rect width="36" height="36" fill="white" transform="translate(0 0.5)"/>
</clipPath>
</defs>
</svg>
