<svg width="36" height="37" viewBox="0 0 36 37" fill="none" xmlns="http://www.w3.org/2000/svg">
<g clip-path="url(#clip0_341_28)">
<path d="M19.3104 2.15991C18.7404 2.15991 18.6904 3.61991 17.6204 4.88991C16.5304 6.17991 15.2604 6.25991 14.1404 6.76991C9.87043 8.72991 9.51043 16.3199 8.78043 16.1799C8.29043 16.0899 8.81043 12.8599 8.22043 12.6999C7.55043 12.5199 5.37043 16.2199 4.93043 20.3199C4.82043 21.3399 4.16043 27.4199 8.13043 31.4299C13.1004 36.4499 22.9104 35.7499 27.7104 30.4899C32.3004 25.4499 31.8604 16.6899 29.4004 15.3399C28.8604 15.0399 28.2604 15.1299 27.5204 14.4899C26.2604 13.4099 26.8204 12.1999 25.7304 10.3499C24.9904 9.08991 24.6904 9.58991 22.9104 7.42991C22.1304 6.47991 21.4504 5.65991 20.7504 4.41991C19.9304 2.96991 19.7704 2.15991 19.3404 2.15991H19.3104Z" fill="#FF6648"/>
<path d="M19.2295 32.3199C18.4795 32.4899 16.9995 32.7199 15.3795 32.1599C12.1195 31.0299 9.79954 27.2599 10.5795 24.9599C11.1195 23.3799 12.7395 23.6599 13.8795 21.3199C14.5895 19.8599 14.6295 18.3999 15.2995 18.3099C15.8495 18.2399 16.1695 19.1799 16.5595 19.0999C17.5095 18.8999 16.1795 12.9799 17.6295 12.2899C18.8295 11.7199 21.7395 14.8299 23.3995 17.9899C24.5095 20.0999 26.8895 24.6499 24.6595 28.5099C23.1395 31.1399 20.2995 32.0299 19.2395 32.3099L19.2295 32.3199Z" fill="#FFA665"/>
</g>
<defs>
<clipPath id="clip0_341_28">
<rect width="36" height="36" fill="white" transform="translate(0 0.5)"/>
</clipPath>
</defs>
</svg>
