<svg width="145" height="39" viewBox="0 0 145 39" fill="none" xmlns="http://www.w3.org/2000/svg">
<path d="M48.0093 38.9079C37.5488 38.9079 29.0371 30.3844 29.0371 19.9092H37.9442C37.9442 25.4661 42.4602 29.9883 48.0093 29.9883C53.5584 29.9883 58.0743 25.4661 58.0743 19.9092H66.9815C66.9815 30.3844 58.4698 38.9079 48.0093 38.9079Z" fill="#68DBA4"/>
<path d="M18.9722 38.9079C8.51165 38.9079 0 30.3844 0 19.9092H8.90713C8.90713 25.4661 13.423 29.9883 18.9722 29.9883C24.5213 29.9883 29.0372 25.4661 29.0372 19.9092H37.9444C37.9444 30.3844 29.4327 38.9079 18.9722 38.9079Z" fill="#21827C"/>
<path d="M84.4803 17.4766H75.9883V26.3962H84.4803V17.4766Z" fill="#8DED9C"/>
<path d="M86.7692 38.9228C77.4149 38.9228 69.8047 31.3019 69.8047 21.9345C69.8047 12.5672 77.4149 4.94629 86.7692 4.94629V13.8659C82.3263 13.8659 78.7118 17.4855 78.7118 21.9345C78.7118 26.3836 82.3263 30.0032 86.7692 30.0032V38.9228Z" fill="#D7F8C2"/>
<path d="M98.2313 0.926758H89.3242V38.951H98.2313V0.926758Z" fill="#68DBA4"/>
<path d="M127.269 38.9509H118.361C118.361 33.394 113.846 28.8717 108.296 28.8717C102.747 28.8717 98.2313 33.394 98.2313 38.9509H89.3242C89.3242 28.4757 97.8359 19.9521 108.296 19.9521C118.757 19.9521 127.269 28.4757 127.269 38.9509Z" fill="#8DED9C"/>
<path d="M142.076 17.4766H133.584V26.3962H142.076V17.4766Z" fill="#D7F8C2"/>
<path d="M144.363 38.9228C135.009 38.9228 127.398 31.3019 127.398 21.9345C127.398 12.5672 135.009 4.94629 144.363 4.94629V13.8659C139.92 13.8659 136.306 17.4855 136.306 21.9345C136.306 26.3836 139.92 30.0032 144.363 30.0032V38.9228Z" fill="#8DED9C"/>
</svg>
