<svg width="36" height="37" viewBox="0 0 36 37" fill="none" xmlns="http://www.w3.org/2000/svg">
<g clip-path="url(#clip0_712_584)">
<path d="M19.3104 2.16016C18.7404 2.16016 18.6904 3.62016 17.6204 4.89016C16.5304 6.18016 15.2604 6.26016 14.1404 6.77016C9.87043 8.73016 9.51043 16.3202 8.78043 16.1802C8.29043 16.0902 8.81043 12.8602 8.22043 12.7002C7.55043 12.5202 5.37043 16.2202 4.93043 20.3202C4.82043 21.3402 4.16043 27.4202 8.13043 31.4302C13.1004 36.4502 22.9104 35.7502 27.7104 30.4902C32.3004 25.4502 31.8604 16.6902 29.4004 15.3402C28.8604 15.0402 28.2604 15.1302 27.5204 14.4902C26.2604 13.4102 26.8204 12.2002 25.7304 10.3502C24.9904 9.09016 24.6904 9.59016 22.9104 7.43016C22.1304 6.48016 21.4504 5.66016 20.7504 4.42016C19.9304 2.97016 19.7704 2.16016 19.3404 2.16016H19.3104Z" fill="#FF6648"/>
<path d="M19.2295 32.3197C18.4795 32.4897 16.9995 32.7197 15.3795 32.1597C12.1195 31.0297 9.79954 27.2597 10.5795 24.9597C11.1195 23.3797 12.7395 23.6597 13.8795 21.3197C14.5895 19.8597 14.6295 18.3997 15.2995 18.3097C15.8495 18.2397 16.1695 19.1797 16.5595 19.0997C17.5095 18.8997 16.1795 12.9797 17.6295 12.2897C18.8295 11.7197 21.7395 14.8297 23.3995 17.9897C24.5095 20.0997 26.8895 24.6497 24.6595 28.5097C23.1395 31.1397 20.2995 32.0297 19.2395 32.3097L19.2295 32.3197Z" fill="#FFA665"/>
</g>
<defs>
<clipPath id="clip0_712_584">
<rect width="36" height="36" fill="white" transform="translate(0 0.5)"/>
</clipPath>
</defs>
</svg>
