<svg width="18" height="18" viewBox="0 0 18 18" fill="none" xmlns="http://www.w3.org/2000/svg">
<path d="M13.5215 12.159C13.4649 12.5445 13.4082 12.9277 13.3515 13.3132C13.3288 13.4697 13.1361 13.5286 13.0272 13.4153C12.6327 12.9958 12.2404 12.5785 11.8458 12.159C9.39002 12.159 6.93424 12.159 4.47846 12.159C4.35147 12.1545 3.83447 12.1273 3.43311 11.7259C3.18367 11.4765 3.08844 11.193 3.06576 11.1205C3.02268 10.9822 3 10.8348 3 10.6806V6.00483C3 5.1885 3.66213 4.52637 4.47846 4.52637H13.5215C14.3379 4.52637 15 5.1885 15 6.00483V10.6783C15 10.7735 14.9909 11.3359 14.5306 11.7622C14.1202 12.1454 13.6327 12.1568 13.5215 12.1568V12.159Z" fill="#21827C"/>
<path d="M5.87293 9.29469C5.34459 9.29469 4.91602 8.86612 4.91602 8.33778C4.91602 7.80943 5.34459 7.38086 5.87293 7.38086C6.40128 7.38086 6.82985 7.80943 6.82985 8.33778C6.82985 8.86612 6.40128 9.29469 5.87293 9.29469ZM5.87293 7.81623C5.58495 7.81623 5.35139 8.04979 5.35139 8.33778C5.35139 8.62576 5.58495 8.85932 5.87293 8.85932C6.16091 8.85932 6.39447 8.62576 6.39447 8.33778C6.39447 8.04979 6.16091 7.81623 5.87293 7.81623Z" fill="white"/>
<path d="M9.0702 9.29469C8.54185 9.29469 8.11328 8.86612 8.11328 8.33778C8.11328 7.80943 8.54185 7.38086 9.0702 7.38086C9.59854 7.38086 10.0271 7.80943 10.0271 8.33778C10.0271 8.86612 9.59854 9.29469 9.0702 9.29469ZM9.0702 7.81623C8.78222 7.81623 8.54866 8.04979 8.54866 8.33778C8.54866 8.62576 8.78222 8.85932 9.0702 8.85932C9.35818 8.85932 9.59174 8.62576 9.59174 8.33778C9.59174 8.04979 9.35818 7.81623 9.0702 7.81623Z" fill="white"/>
<path d="M12.2694 9.29469C11.7411 9.29469 11.3125 8.86612 11.3125 8.33778C11.3125 7.80943 11.7411 7.38086 12.2694 7.38086C12.7978 7.38086 13.2263 7.80943 13.2263 8.33778C13.2263 8.86612 12.7978 9.29469 12.2694 9.29469ZM12.2694 7.81623C11.9814 7.81623 11.7479 8.04979 11.7479 8.33778C11.7479 8.62576 11.9814 8.85932 12.2694 8.85932C12.5574 8.85932 12.791 8.62576 12.791 8.33778C12.791 8.04979 12.5574 7.81623 12.2694 7.81623Z" fill="white"/>
</svg>
