<svg width="56" height="56" viewBox="0 0 56 56" fill="none" xmlns="http://www.w3.org/2000/svg">
<path d="M11.6667 49C10.3833 49 9.28434 48.5427 8.36967 47.628C7.455 46.7133 6.99845 45.6151 7 44.3333V11.6667C7 10.3833 7.45734 9.28434 8.372 8.36967C9.28667 7.45501 10.3849 6.99845 11.6667 7.00001H30.3333C30.9945 7.00001 31.549 7.22401 31.997 7.67201C32.445 8.12001 32.6682 8.67379 32.6667 9.33334C32.6667 9.99445 32.4427 10.549 31.9947 10.997C31.5467 11.445 30.9929 11.6682 30.3333 11.6667H11.6667V44.3333H44.3333V25.6667C44.3333 25.0056 44.5573 24.451 45.0053 24.003C45.4533 23.555 46.0071 23.3318 46.6667 23.3333C47.3278 23.3333 47.8823 23.5573 48.3303 24.0053C48.7783 24.4533 49.0016 25.0071 49 25.6667V44.3333C49 45.6167 48.5427 46.7157 47.628 47.6303C46.7133 48.545 45.6151 49.0016 44.3333 49H11.6667ZM39.6667 16.3333H37.3333C36.6722 16.3333 36.1177 16.1093 35.6697 15.6613C35.2217 15.2133 34.9984 14.6596 35 14C35 13.3389 35.224 12.7843 35.672 12.3363C36.12 11.8883 36.6738 11.6651 37.3333 11.6667H39.6667V9.33334C39.6667 8.67223 39.8907 8.11767 40.3387 7.66967C40.7867 7.22167 41.3405 6.99845 42 7.00001C42.6611 7.00001 43.2157 7.22401 43.6637 7.67201C44.1117 8.12001 44.3349 8.67379 44.3333 9.33334V11.6667H46.6667C47.3278 11.6667 47.8823 11.8907 48.3303 12.3387C48.7783 12.7867 49.0016 13.3405 49 14C49 14.6611 48.776 15.2157 48.328 15.6637C47.88 16.1117 47.3262 16.3349 46.6667 16.3333H44.3333V18.6667C44.3333 19.3278 44.1093 19.8823 43.6613 20.3303C43.2133 20.7783 42.6596 21.0016 42 21C41.3389 21 40.7843 20.776 40.3363 20.328C39.8883 19.88 39.6651 19.3262 39.6667 18.6667V16.3333ZM26.25 37.3333L21.9333 31.5583C21.7 31.2472 21.3889 31.0917 21 31.0917C20.6111 31.0917 20.3 31.2472 20.0667 31.5583L15.4 37.8C15.0889 38.1889 15.05 38.5972 15.2833 39.025C15.5167 39.4528 15.8667 39.6667 16.3333 39.6667H39.6667C40.1333 39.6667 40.4833 39.4528 40.7167 39.025C40.95 38.5972 40.9111 38.1889 40.6 37.8L34.1833 29.225C33.95 28.9139 33.6389 28.7583 33.25 28.7583C32.8611 28.7583 32.55 28.9139 32.3167 29.225L26.25 37.3333Z" fill="white"/>
</svg>
