<svg width="18" height="18" viewBox="0 0 18 18" fill="none" xmlns="http://www.w3.org/2000/svg">
<path d="M3.29301 9.77715C2.95522 9.54138 2.90081 9.0653 3.17513 8.75698C4.02074 7.80935 5.96134 6.07731 8.92438 6.0025C11.8806 5.92769 13.9051 7.54863 14.7983 8.44866C15.0885 8.74111 15.059 9.21946 14.7349 9.47337C13.7668 10.226 11.8172 11.4389 9.10802 11.5251C6.35581 11.6112 4.30866 10.4845 3.29301 9.77942V9.77715Z" fill="#21827C"/>
<path d="M8.99948 7.13614C9.90857 7.13614 10.6454 7.87293 10.6454 8.78202C10.6454 9.69111 9.90857 10.4279 8.99948 10.4279C8.09039 10.4279 7.3536 9.69111 7.3536 8.78202C7.3536 7.87293 8.09039 7.13614 8.99948 7.13614ZM8.99948 6.5127C7.74806 6.5127 6.73242 7.5306 6.73242 8.77975C6.73242 10.0289 7.75033 11.0468 8.99948 11.0468C10.2486 11.0468 11.2665 10.0289 11.2665 8.77975C11.2665 7.5306 10.2486 6.5127 8.99948 6.5127Z" fill="white"/>
</svg>
